<svg xmlns="http://www.w3.org/2000/svg" viewBox="0 0 900 300" width="900" height="300">
  <defs>
    <style>
      .cursor  { animation: cb .8s step-end infinite; animation-delay: 2.5s; opacity: 0; }
      .beacon  { animation: bp 2.2s ease-in-out infinite; }
      .beacon2 { animation: bp 2.2s ease-in-out infinite; animation-delay: 1.1s; }
      .beacon3 { animation: bp 2.2s ease-in-out infinite; animation-delay: 0.55s; }
      @keyframes cb { 0%,100%{opacity:1} 50%{opacity:0} }
      @keyframes bp { 0%,100%{opacity:1} 50%{opacity:.05} }
    </style>

    <linearGradient id="sky" x1="0" y1="0" x2="0" y2="1" gradientUnits="objectBoundingBox">
      <stop offset="0%"   stop-color="#02030b"/>
      <stop offset="100%" stop-color="#050c1a"/>
    </linearGradient>
    <linearGradient id="haze" x1="0" y1="0" x2="0" y2="1" gradientUnits="objectBoundingBox">
      <stop offset="0%"   stop-color="#040e20" stop-opacity="0"/>
      <stop offset="100%" stop-color="#040e20" stop-opacity=".7"/>
    </linearGradient>

    <filter id="neon" x="-30%" y="-80%" width="160%" height="260%">
      <feGaussianBlur in="SourceGraphic" stdDeviation="3" result="b1"/>
      <feGaussianBlur in="SourceGraphic" stdDeviation="8" result="b2"/>
      <feMerge><feMergeNode in="b2"/><feMergeNode in="b1"/><feMergeNode in="SourceGraphic"/></feMerge>
    </filter>
    <filter id="sg" x="-150%" y="-150%" width="400%" height="400%">
      <feGaussianBlur stdDeviation="2" result="b"/>
      <feMerge><feMergeNode in="b"/><feMergeNode in="SourceGraphic"/></feMerge>
    </filter>
    <filter id="ssg" x="-80%" y="-80%" width="260%" height="260%">
      <feGaussianBlur stdDeviation="1" result="b"/>
      <feMerge><feMergeNode in="b"/><feMergeNode in="SourceGraphic"/></feMerge>
    </filter>

    <!-- Dense cool-blue window grid -->
    <pattern id="wG" x="0" y="0" width="36" height="28" patternUnits="userSpaceOnUse">
      <rect x="2"  y="2"  width="5" height="3" fill="#4a6280" opacity=".60"/>
      <rect x="11" y="2"  width="5" height="3" fill="#0e1824" opacity=".4"/>
      <rect x="20" y="2"  width="5" height="3" fill="#587092" opacity=".66"/>
      <rect x="29" y="2"  width="5" height="3" fill="#405870" opacity=".52"/>
      <rect x="2"  y="9"  width="5" height="3" fill="#0e1824" opacity=".28"/>
      <rect x="11" y="9"  width="5" height="3" fill="#506888" opacity=".55"/>
      <rect x="20" y="9"  width="5" height="3" fill="#a08040" opacity=".40"/>
      <rect x="29" y="9"  width="5" height="3" fill="#0e1824" opacity=".28"/>
      <rect x="2"  y="16" width="5" height="3" fill="#5878a0" opacity=".65"/>
      <rect x="11" y="16" width="5" height="3" fill="#0e1824" opacity=".20"/>
      <rect x="20" y="16" width="5" height="3" fill="#4a6280" opacity=".55"/>
      <rect x="29" y="16" width="5" height="3" fill="#6080a8" opacity=".70"/>
      <rect x="2"  y="23" width="5" height="3" fill="#405878" opacity=".50"/>
      <rect x="11" y="23" width="5" height="3" fill="#7080b0" opacity=".55"/>
      <rect x="20" y="23" width="5" height="3" fill="#0e1824" opacity=".18"/>
      <rect x="29" y="23" width="5" height="3" fill="#4a6280" opacity=".60"/>
    </pattern>
    <!-- Smaller window grid for center buildings -->
    <pattern id="wS" x="0" y="0" width="22" height="18" patternUnits="userSpaceOnUse">
      <rect x="2"  y="2"  width="4" height="3" fill="#4a6080" opacity=".55"/>
      <rect x="10" y="2"  width="4" height="3" fill="#0c1620" opacity=".35"/>
      <rect x="16" y="2"  width="4" height="3" fill="#556888" opacity=".62"/>
      <rect x="2"  y="9"  width="4" height="3" fill="#556888" opacity=".58"/>
      <rect x="10" y="9"  width="4" height="3" fill="#8878a0" opacity=".38"/>
      <rect x="16" y="9"  width="4" height="3" fill="#0c1620" opacity=".25"/>
      <rect x="2"  y="14" width="4" height="3" fill="#0c1620" opacity=".22"/>
      <rect x="10" y="14" width="4" height="3" fill="#4a6080" opacity=".52"/>
      <rect x="16" y="14" width="4" height="3" fill="#556888" opacity=".60"/>
    </pattern>

    <clipPath id="typer">
      <rect x="0" y="105" width="0" height="65">
        <animate attributeName="width" from="0" to="900" dur="2s" begin="0.8s" fill="freeze"/>
      </rect>
    </clipPath>
  </defs>

  <!-- Sky -->
  <rect width="900" height="300" fill="url(#sky)"/>

  <!-- Dim stars -->
  <g fill="#fff" opacity=".30">
    <circle cx="38"  cy="10" r="0.8"/><circle cx="95"  cy="24" r="1.0"/>
    <circle cx="158" cy="7"  r="0.7"/><circle cx="228" cy="32" r="0.9"/>
    <circle cx="318" cy="15" r="0.8"/><circle cx="412" cy="40" r="0.7"/>
    <circle cx="490" cy="12" r="1.0"/><circle cx="572" cy="36" r="0.8"/>
    <circle cx="650" cy="8"  r="0.9"/><circle cx="738" cy="28" r="0.7"/>
    <circle cx="820" cy="18" r="0.8"/><circle cx="878" cy="44" r="1.0"/>
  </g>

  <!-- ░░ FAR BACKGROUND: horizon buildings ░░ -->
  <g fill="#040710" opacity=".9">
    <rect x="0"   y="210" width="55"  height="48"/>
    <rect x="58"  y="196" width="48"  height="62"/>
    <rect x="110" y="205" width="42"  height="53"/>
    <rect x="155" y="188" width="55"  height="70"/>
    <rect x="214" y="200" width="40"  height="58"/>
    <rect x="258" y="215" width="35"  height="43"/>
    <rect x="335" y="220" width="32"  height="38"/>
    <rect x="380" y="228" width="28"  height="30"/>
    <rect x="490" y="228" width="28"  height="30"/>
    <rect x="535" y="220" width="32"  height="38"/>
    <rect x="608" y="215" width="35"  height="43"/>
    <rect x="646" y="200" width="40"  height="58"/>
    <rect x="690" y="188" width="55"  height="70"/>
    <rect x="748" y="205" width="42"  height="53"/>
    <rect x="793" y="196" width="48"  height="62"/>
    <rect x="844" y="210" width="56"  height="48"/>
  </g>

  <!-- ░░ LEFT MEGA-BUILDING ░░ -->
  <rect x="0"   y="0"   width="265" height="258" fill="#060810"/>
  <rect x="0"   y="0"   width="265" height="258" fill="url(#wG)" opacity=".54"/>
  <!-- Structural verticals -->
  <rect x="88"  y="0"   width="2"   height="258" fill="#02040a" opacity=".9"/>
  <rect x="176" y="0"   width="2"   height="258" fill="#02040a" opacity=".9"/>
  <!-- Horizontal floor bands -->
  <line x1="0" y1="52"  x2="265" y2="52"  stroke="#0a1828" stroke-width="1.5"/>
  <line x1="0" y1="104" x2="265" y2="104" stroke="#0a1828" stroke-width="1.5"/>
  <line x1="0" y1="156" x2="265" y2="156" stroke="#0a1828" stroke-width="1.5"/>
  <line x1="0" y1="208" x2="265" y2="208" stroke="#0a1828" stroke-width="1.5"/>
  <!-- Neon edge strip -->
  <line x1="263" y1="0" x2="263" y2="258" stroke="#00aadd" stroke-width="1" opacity=".35" filter="url(#ssg)"/>
  <!-- Neon accent lines on face -->
  <line x1="0" y1="78"  x2="265" y2="78"  stroke="#005588" stroke-width="0.5" opacity=".30"/>
  <line x1="0" y1="130" x2="265" y2="130" stroke="#005588" stroke-width="0.5" opacity=".25"/>
  <line x1="0" y1="182" x2="265" y2="182" stroke="#005588" stroke-width="0.5" opacity=".25"/>
  <!-- Antenna cluster top -->
  <rect x="40"  y="0"   width="2"   height="12" fill="#0c1220"/>
  <rect x="80"  y="0"   width="1.5" height="18" fill="#0c1220"/>
  <rect x="130" y="0"   width="2"   height="22" fill="#0c1220"/>
  <circle cx="130" cy="0" r="2.2" fill="#ff2200" filter="url(#sg)" class="beacon"/>
  <rect x="200" y="0"   width="1.5" height="16" fill="#0c1220"/>
  <rect x="240" y="0"   width="2"   height="10" fill="#0c1220"/>
  <!-- Large neon sign block on left building -->
  <rect x="10" y="160" width="80"  height="3"  fill="#00ccff" opacity=".55" filter="url(#ssg)"/>
  <rect x="10" y="166" width="55"  height="2"  fill="#00aaff" opacity=".40" filter="url(#ssg)"/>

  <!-- ░░ RIGHT MEGA-BUILDING ░░ -->
  <rect x="635" y="0"   width="265" height="258" fill="#050810"/>
  <rect x="635" y="0"   width="265" height="258" fill="url(#wG)" opacity=".56"/>
  <rect x="722" y="0"   width="2"   height="258" fill="#020409" opacity=".9"/>
  <rect x="810" y="0"   width="2"   height="258" fill="#020409" opacity=".9"/>
  <line x1="635" y1="52"  x2="900" y2="52"  stroke="#0a1828" stroke-width="1.5"/>
  <line x1="635" y1="104" x2="900" y2="104" stroke="#0a1828" stroke-width="1.5"/>
  <line x1="635" y1="156" x2="900" y2="156" stroke="#0a1828" stroke-width="1.5"/>
  <line x1="635" y1="208" x2="900" y2="208" stroke="#0a1828" stroke-width="1.5"/>
  <line x1="637" y1="0"   x2="637" y2="258" stroke="#00aadd" stroke-width="1" opacity=".35" filter="url(#ssg)"/>
  <line x1="635" y1="78"  x2="900" y2="78"  stroke="#005588" stroke-width="0.5" opacity=".30"/>
  <line x1="635" y1="130" x2="900" y2="130" stroke="#005588" stroke-width="0.5" opacity=".25"/>
  <line x1="635" y1="182" x2="900" y2="182" stroke="#005588" stroke-width="0.5" opacity=".25"/>
  <rect x="660" y="0"   width="2"   height="12" fill="#0c1220"/>
  <rect x="700" y="0"   width="1.5" height="18" fill="#0c1220"/>
  <rect x="770" y="0"   width="2"   height="22" fill="#0c1220"/>
  <circle cx="770" cy="0" r="2.2" fill="#ff2200" filter="url(#sg)" class="beacon2"/>
  <rect x="840" y="0"   width="1.5" height="16" fill="#0c1220"/>
  <rect x="880" y="0"   width="2"   height="10" fill="#0c1220"/>
  <rect x="810" y="160" width="80"  height="3"  fill="#00ccff" opacity=".55" filter="url(#ssg)"/>
  <rect x="835" y="166" width="55"  height="2"  fill="#00aaff" opacity=".40" filter="url(#ssg)"/>

  <!-- ░░ MID-FRAME BUILDINGS (inward) ░░ -->
  <!-- Left mid -->
  <rect x="265" y="68"  width="88"  height="190" fill="#060a14"/>
  <rect x="265" y="68"  width="88"  height="190" fill="url(#wS)" opacity=".40"/>
  <rect x="270" y="52"  width="72"  height="18"  fill="#060a14"/>
  <rect x="276" y="40"  width="58"  height="14"  fill="#070b16"/>
  <line x1="265" y1="68" x2="353" y2="68" stroke="#003366" stroke-width="1" opacity=".5"/>
  <!-- Right mid -->
  <rect x="547" y="68"  width="88"  height="190" fill="#060a14"/>
  <rect x="547" y="68"  width="88"  height="190" fill="url(#wS)" opacity=".40"/>
  <rect x="558" y="52"  width="72"  height="18"  fill="#060a14"/>
  <rect x="566" y="40"  width="58"  height="14"  fill="#070b16"/>
  <line x1="547" y1="68" x2="635" y2="68" stroke="#003366" stroke-width="1" opacity=".5"/>

  <!-- ░░ CENTER FUTURISTIC SKYSCRAPERS ░░ -->

  <!-- Center-left tower: stepped profile -->
  <rect x="353" y="125" width="62"  height="133" fill="#070a15"/>
  <rect x="356" y="88"  width="54"  height="39"  fill="#070914"/>
  <rect x="360" y="68"  width="44"  height="22"  fill="#060812"/>
  <rect x="365" y="52"  width="32"  height="18"  fill="#060812"/>
  <rect x="382" y="36"  width="2"   height="18"  fill="#0c1220"/>
  <circle cx="383" cy="35" r="2" fill="#ff2200" filter="url(#sg)" class="beacon3"/>
  <!-- windows on tower -->
  <rect x="353" y="125" width="62"  height="133" fill="url(#wS)" opacity=".45"/>
  <rect x="356" y="88"  width="54"  height="39"  fill="url(#wS)" opacity=".38"/>
  <!-- cyan neon strip -->
  <line x1="414" y1="36" x2="414" y2="258" stroke="#00bbdd" stroke-width="1" opacity=".28" filter="url(#ssg)"/>
  <line x1="353" y1="125" x2="415" y2="125" stroke="#0055aa" stroke-width="0.8" opacity=".45"/>

  <!-- Central spire tower -->
  <rect x="422" y="130" width="56"  height="128" fill="#080b18"/>
  <rect x="426" y="100" width="48"  height="32"  fill="#070915"/>
  <rect x="432" y="80"  width="36"  height="22"  fill="#060813"/>
  <rect x="437" y="62"  width="26"  height="20"  fill="#060812"/>
  <rect x="449" y="42"  width="2"   height="22"  fill="#0e1826"/>
  <!-- angled top cap -->
  <polygon points="437,62 463,62 460,56 440,56" fill="#060812"/>
  <circle cx="450" cy="41" r="2.2" fill="#ff2200" filter="url(#sg)" class="beacon2"/>
  <rect x="422" y="130" width="56"  height="128" fill="url(#wS)" opacity=".50"/>
  <rect x="426" y="100" width="48"  height="32"  fill="url(#wS)" opacity=".42"/>
  <!-- purple neon strip -->
  <line x1="450" y1="41" x2="450" y2="258" stroke="#8800ff" stroke-width="1" opacity=".22" filter="url(#ssg)"/>

  <!-- Center-right tower: stepped profile (mirror) -->
  <rect x="485" y="118" width="62"  height="140" fill="#070914"/>
  <rect x="487" y="82"  width="56"  height="38"  fill="#070914"/>
  <rect x="491" y="62"  width="46"  height="22"  fill="#060812"/>
  <rect x="495" y="44"  width="36"  height="20"  fill="#060812"/>
  <rect x="513" y="26"  width="2"   height="20"  fill="#0c1220"/>
  <circle cx="514" cy="25" r="2" fill="#ff2200" filter="url(#sg)" class="beacon"/>
  <rect x="485" y="118" width="62"  height="140" fill="url(#wS)" opacity=".46"/>
  <rect x="487" y="82"  width="56"  height="38"  fill="url(#wS)" opacity=".38"/>
  <line x1="485" y1="26" x2="485" y2="258" stroke="#00bbdd" stroke-width="1" opacity=".28" filter="url(#ssg)"/>
  <line x1="485" y1="118" x2="547" y2="118" stroke="#0055aa" stroke-width="0.8" opacity=".40"/>

  <!-- ░░ DEPTH HAZE ░░ -->
  <rect x="0" y="140" width="900" height="160" fill="url(#haze)"/>

  <!-- Street level -->
  <rect x="0" y="256" width="900" height="2"  fill="#1a2f50" opacity=".7"/>
  <rect x="0" y="258" width="900" height="42" fill="#010610"/>
  <line x1="0" y1="258" x2="900" y2="258" stroke="#1e3555" stroke-width="1" opacity=".7"/>
  <!-- Ground reflections (wet street) -->
  <rect x="0" y="258" width="900" height="42" fill="#010814" opacity=".8"/>
  <line x1="450" y1="258" x2="400" y2="300" stroke="#00aadd" stroke-width="0.5" opacity=".12" filter="url(#ssg)"/>
  <line x1="450" y1="258" x2="490" y2="300" stroke="#00aadd" stroke-width="0.5" opacity=".10" filter="url(#ssg)"/>

  <!-- ░░ RAIN — layer 1 (background, fine) ░░ -->
  <g stroke="rgba(140,168,205,0.20)" stroke-width="0.5" stroke-linecap="round">
    <animateTransform attributeName="transform" type="translate" from="0 0" to="2 48" dur="1.0s" repeatCount="indefinite"/>
    <line x1="15"  y1="-48" x2="14.5" y2="-32"/><line x1="15"  y1="0"   x2="14.5" y2="16"/>
    <line x1="15"  y1="48"  x2="14.5" y2="64"/> <line x1="15"  y1="96"  x2="14.5" y2="112"/>
    <line x1="15"  y1="144" x2="14.5" y2="160"/><line x1="15"  y1="192" x2="14.5" y2="208"/>
    <line x1="15"  y1="240" x2="14.5" y2="256"/><line x1="15"  y1="288" x2="14.5" y2="304"/>
    <line x1="75"  y1="-48" x2="74.5" y2="-32"/><line x1="75"  y1="0"   x2="74.5" y2="16"/>
    <line x1="75"  y1="48"  x2="74.5" y2="64"/> <line x1="75"  y1="96"  x2="74.5" y2="112"/>
    <line x1="75"  y1="144" x2="74.5" y2="160"/><line x1="75"  y1="192" x2="74.5" y2="208"/>
    <line x1="75"  y1="240" x2="74.5" y2="256"/><line x1="75"  y1="288" x2="74.5" y2="304"/>
    <line x1="135" y1="-48" x2="134.5" y2="-32"/><line x1="135" y1="0"   x2="134.5" y2="16"/>
    <line x1="135" y1="48"  x2="134.5" y2="64"/> <line x1="135" y1="96"  x2="134.5" y2="112"/>
    <line x1="135" y1="144" x2="134.5" y2="160"/><line x1="135" y1="192" x2="134.5" y2="208"/>
    <line x1="135" y1="240" x2="134.5" y2="256"/><line x1="135" y1="288" x2="134.5" y2="304"/>
    <line x1="195" y1="-48" x2="194.5" y2="-32"/><line x1="195" y1="0"   x2="194.5" y2="16"/>
    <line x1="195" y1="48"  x2="194.5" y2="64"/> <line x1="195" y1="96"  x2="194.5" y2="112"/>
    <line x1="195" y1="144" x2="194.5" y2="160"/><line x1="195" y1="192" x2="194.5" y2="208"/>
    <line x1="195" y1="240" x2="194.5" y2="256"/><line x1="195" y1="288" x2="194.5" y2="304"/>
    <line x1="255" y1="-48" x2="254.5" y2="-32"/><line x1="255" y1="0"   x2="254.5" y2="16"/>
    <line x1="255" y1="48"  x2="254.5" y2="64"/> <line x1="255" y1="96"  x2="254.5" y2="112"/>
    <line x1="255" y1="144" x2="254.5" y2="160"/><line x1="255" y1="192" x2="254.5" y2="208"/>
    <line x1="255" y1="240" x2="254.5" y2="256"/><line x1="255" y1="288" x2="254.5" y2="304"/>
    <line x1="315" y1="-48" x2="314.5" y2="-32"/><line x1="315" y1="0"   x2="314.5" y2="16"/>
    <line x1="315" y1="48"  x2="314.5" y2="64"/> <line x1="315" y1="96"  x2="314.5" y2="112"/>
    <line x1="315" y1="144" x2="314.5" y2="160"/><line x1="315" y1="192" x2="314.5" y2="208"/>
    <line x1="315" y1="240" x2="314.5" y2="256"/><line x1="315" y1="288" x2="314.5" y2="304"/>
    <line x1="375" y1="-48" x2="374.5" y2="-32"/><line x1="375" y1="0"   x2="374.5" y2="16"/>
    <line x1="375" y1="48"  x2="374.5" y2="64"/> <line x1="375" y1="96"  x2="374.5" y2="112"/>
    <line x1="375" y1="144" x2="374.5" y2="160"/><line x1="375" y1="192" x2="374.5" y2="208"/>
    <line x1="375" y1="240" x2="374.5" y2="256"/><line x1="375" y1="288" x2="374.5" y2="304"/>
    <line x1="435" y1="-48" x2="434.5" y2="-32"/><line x1="435" y1="0"   x2="434.5" y2="16"/>
    <line x1="435" y1="48"  x2="434.5" y2="64"/> <line x1="435" y1="96"  x2="434.5" y2="112"/>
    <line x1="435" y1="144" x2="434.5" y2="160"/><line x1="435" y1="192" x2="434.5" y2="208"/>
    <line x1="435" y1="240" x2="434.5" y2="256"/><line x1="435" y1="288" x2="434.5" y2="304"/>
    <line x1="495" y1="-48" x2="494.5" y2="-32"/><line x1="495" y1="0"   x2="494.5" y2="16"/>
    <line x1="495" y1="48"  x2="494.5" y2="64"/> <line x1="495" y1="96"  x2="494.5" y2="112"/>
    <line x1="495" y1="144" x2="494.5" y2="160"/><line x1="495" y1="192" x2="494.5" y2="208"/>
    <line x1="495" y1="240" x2="494.5" y2="256"/><line x1="495" y1="288" x2="494.5" y2="304"/>
    <line x1="555" y1="-48" x2="554.5" y2="-32"/><line x1="555" y1="0"   x2="554.5" y2="16"/>
    <line x1="555" y1="48"  x2="554.5" y2="64"/> <line x1="555" y1="96"  x2="554.5" y2="112"/>
    <line x1="555" y1="144" x2="554.5" y2="160"/><line x1="555" y1="192" x2="554.5" y2="208"/>
    <line x1="555" y1="240" x2="554.5" y2="256"/><line x1="555" y1="288" x2="554.5" y2="304"/>
    <line x1="615" y1="-48" x2="614.5" y2="-32"/><line x1="615" y1="0"   x2="614.5" y2="16"/>
    <line x1="615" y1="48"  x2="614.5" y2="64"/> <line x1="615" y1="96"  x2="614.5" y2="112"/>
    <line x1="615" y1="144" x2="614.5" y2="160"/><line x1="615" y1="192" x2="614.5" y2="208"/>
    <line x1="615" y1="240" x2="614.5" y2="256"/><line x1="615" y1="288" x2="614.5" y2="304"/>
    <line x1="675" y1="-48" x2="674.5" y2="-32"/><line x1="675" y1="0"   x2="674.5" y2="16"/>
    <line x1="675" y1="48"  x2="674.5" y2="64"/> <line x1="675" y1="96"  x2="674.5" y2="112"/>
    <line x1="675" y1="144" x2="674.5" y2="160"/><line x1="675" y1="192" x2="674.5" y2="208"/>
    <line x1="675" y1="240" x2="674.5" y2="256"/><line x1="675" y1="288" x2="674.5" y2="304"/>
    <line x1="735" y1="-48" x2="734.5" y2="-32"/><line x1="735" y1="0"   x2="734.5" y2="16"/>
    <line x1="735" y1="48"  x2="734.5" y2="64"/> <line x1="735" y1="96"  x2="734.5" y2="112"/>
    <line x1="735" y1="144" x2="734.5" y2="160"/><line x1="735" y1="192" x2="734.5" y2="208"/>
    <line x1="735" y1="240" x2="734.5" y2="256"/><line x1="735" y1="288" x2="734.5" y2="304"/>
    <line x1="795" y1="-48" x2="794.5" y2="-32"/><line x1="795" y1="0"   x2="794.5" y2="16"/>
    <line x1="795" y1="48"  x2="794.5" y2="64"/> <line x1="795" y1="96"  x2="794.5" y2="112"/>
    <line x1="795" y1="144" x2="794.5" y2="160"/><line x1="795" y1="192" x2="794.5" y2="208"/>
    <line x1="795" y1="240" x2="794.5" y2="256"/><line x1="795" y1="288" x2="794.5" y2="304"/>
    <line x1="855" y1="-48" x2="854.5" y2="-32"/><line x1="855" y1="0"   x2="854.5" y2="16"/>
    <line x1="855" y1="48"  x2="854.5" y2="64"/> <line x1="855" y1="96"  x2="854.5" y2="112"/>
    <line x1="855" y1="144" x2="854.5" y2="160"/><line x1="855" y1="192" x2="854.5" y2="208"/>
    <line x1="855" y1="240" x2="854.5" y2="256"/><line x1="855" y1="288" x2="854.5" y2="304"/>
  </g>

  <!-- ░░ RAIN — layer 2 (heavier, offset) ░░ -->
  <g stroke="rgba(155,178,215,0.28)" stroke-width="0.8" stroke-linecap="round">
    <animateTransform attributeName="transform" type="translate" from="0 -60" to="3 0" dur="1.3s" repeatCount="indefinite"/>
    <line x1="45"  y1="0"   x2="44.3" y2="20"/> <line x1="45"  y1="60"  x2="44.3" y2="80"/>
    <line x1="45"  y1="120" x2="44.3" y2="140"/><line x1="45"  y1="180" x2="44.3" y2="200"/>
    <line x1="45"  y1="240" x2="44.3" y2="260"/><line x1="45"  y1="300" x2="44.3" y2="320"/>
    <line x1="165" y1="0"   x2="164.3" y2="20"/> <line x1="165" y1="60"  x2="164.3" y2="80"/>
    <line x1="165" y1="120" x2="164.3" y2="140"/><line x1="165" y1="180" x2="164.3" y2="200"/>
    <line x1="165" y1="240" x2="164.3" y2="260"/><line x1="165" y1="300" x2="164.3" y2="320"/>
    <line x1="285" y1="0"   x2="284.3" y2="20"/> <line x1="285" y1="60"  x2="284.3" y2="80"/>
    <line x1="285" y1="120" x2="284.3" y2="140"/><line x1="285" y1="180" x2="284.3" y2="200"/>
    <line x1="285" y1="240" x2="284.3" y2="260"/><line x1="285" y1="300" x2="284.3" y2="320"/>
    <line x1="405" y1="0"   x2="404.3" y2="20"/> <line x1="405" y1="60"  x2="404.3" y2="80"/>
    <line x1="405" y1="120" x2="404.3" y2="140"/><line x1="405" y1="180" x2="404.3" y2="200"/>
    <line x1="405" y1="240" x2="404.3" y2="260"/><line x1="405" y1="300" x2="404.3" y2="320"/>
    <line x1="525" y1="0"   x2="524.3" y2="20"/> <line x1="525" y1="60"  x2="524.3" y2="80"/>
    <line x1="525" y1="120" x2="524.3" y2="140"/><line x1="525" y1="180" x2="524.3" y2="200"/>
    <line x1="525" y1="240" x2="524.3" y2="260"/><line x1="525" y1="300" x2="524.3" y2="320"/>
    <line x1="645" y1="0"   x2="644.3" y2="20"/> <line x1="645" y1="60"  x2="644.3" y2="80"/>
    <line x1="645" y1="120" x2="644.3" y2="140"/><line x1="645" y1="180" x2="644.3" y2="200"/>
    <line x1="645" y1="240" x2="644.3" y2="260"/><line x1="645" y1="300" x2="644.3" y2="320"/>
    <line x1="765" y1="0"   x2="764.3" y2="20"/> <line x1="765" y1="60"  x2="764.3" y2="80"/>
    <line x1="765" y1="120" x2="764.3" y2="140"/><line x1="765" y1="180" x2="764.3" y2="200"/>
    <line x1="765" y1="240" x2="764.3" y2="260"/><line x1="765" y1="300" x2="764.3" y2="320"/>
    <line x1="885" y1="0"   x2="884.3" y2="20"/> <line x1="885" y1="60"  x2="884.3" y2="80"/>
    <line x1="885" y1="120" x2="884.3" y2="140"/><line x1="885" y1="180" x2="884.3" y2="200"/>
    <line x1="885" y1="240" x2="884.3" y2="260"/><line x1="885" y1="300" x2="884.3" y2="320"/>
  </g>

  <!-- ░░ FLYING SHIPS ░░ -->

  <!-- Ship 1: tiny, very high, slow L→R -->
  <g>
    <animateTransform attributeName="transform" type="translate" from="-30 22" to="930 22" dur="32s" repeatCount="indefinite"/>
    <ellipse cx="0" cy="0" rx="9"  ry="1.8" fill="#12101e"/>
    <ellipse cx="0" cy="-1" rx="7"  ry="1"   fill="#1a1830" opacity=".8"/>
    <circle  cx="-8" cy="0" r="1.2" fill="#cc1800" filter="url(#sg)"/>
    <circle  cx="8"  cy="0" r="1"   fill="#2244aa" filter="url(#sg)"/>
    <circle  cx="10" cy="0" r="0.8" fill="#ffffff" filter="url(#sg)" opacity=".7"/>
  </g>

  <!-- Ship 2: small, mid-height, R→L -->
  <g>
    <animateTransform attributeName="transform" type="translate" from="940 52" to="-40 52" dur="24s" begin="-10s" repeatCount="indefinite"/>
    <ellipse cx="0" cy="0" rx="14" ry="2.5" fill="#0e0c1c"/>
    <ellipse cx="0" cy="-1" rx="11" ry="1.4" fill="#18162a" opacity=".8"/>
    <ellipse cx="-3" cy="0" rx="4" ry="1.2" fill="#100e20" opacity=".6"/>
    <circle  cx="12" cy="0" r="1.5" fill="#cc1800" filter="url(#sg)"/>
    <circle  cx="-12" cy="0" r="1.2" fill="#2255cc" filter="url(#sg)"/>
    <circle  cx="-14" cy="0" r="1"  fill="#88aaff"  filter="url(#sg)" opacity=".8"/>
    <!-- Light trail -->
    <line x1="14" y1="0" x2="30" y2="0" stroke="#ffffff" stroke-width="0.5" opacity=".15"/>
  </g>

  <!-- Ship 3: medium, lower, L→R, with underlight -->
  <g>
    <animateTransform attributeName="transform" type="translate" from="-50 78" to="950 72" dur="20s" begin="-7s" repeatCount="indefinite"/>
    <ellipse cx="0"  cy="0"  rx="20" ry="3.5" fill="#0e0c1c"/>
    <ellipse cx="0"  cy="-1" rx="16" ry="2"   fill="#1a1830" opacity=".8"/>
    <ellipse cx="-4" cy="0"  rx="5"  ry="1.8" fill="#100e22" opacity=".7"/>
    <circle  cx="-18" cy="0"  r="2"  fill="#cc1800" filter="url(#sg)"/>
    <circle  cx="18"  cy="0"  r="1.5" fill="#2244aa" filter="url(#sg)"/>
    <circle  cx="20"  cy="0"  r="1.2" fill="#88aaff"  filter="url(#sg)" opacity=".9"/>
    <!-- Headlight beam -->
    <polygon points="19,-2 19,2 38,1.5 38,-1.5" fill="#4466cc" opacity=".15"/>
    <!-- Underside glow -->
    <ellipse cx="0" cy="4" rx="12" ry="2" fill="#2244aa" opacity=".18" filter="url(#ssg)"/>
  </g>

  <!-- Ship 4: background, different angle -->
  <g>
    <animateTransform attributeName="transform" type="translate" from="-20 38" to="920 44" dur="44s" begin="-20s" repeatCount="indefinite"/>
    <ellipse cx="0" cy="0" rx="6"  ry="1.2" fill="#100e1e"/>
    <circle  cx="-5" cy="0" r="0.9" fill="#bb1600" filter="url(#sg)" opacity=".8"/>
    <circle  cx="5"  cy="0" r="0.8" fill="#1e3888" filter="url(#sg)" opacity=".8"/>
  </g>

  <!-- ░░ TEXT BACKDROP (subtle dark bar) ░░ -->
  <rect x="210" y="118" width="480" height="46" fill="#010510" opacity=".45" rx="2"/>

  <!-- ░░ TYPEWRITER TEXT ░░ -->
  <g clip-path="url(#typer)">
    <text x="450" y="152"
          text-anchor="middle"
          font-family="'Courier New', Courier, monospace"
          font-size="38"
          letter-spacing="5"
          fill="#ffffff"
          filter="url(#neon)">HELLO, WELCOME</text>
  </g>

  <!-- Cursor -->
  <rect x="643" y="122" width="3" height="33" fill="#ffffff" filter="url(#neon)" class="cursor"/>
</svg>

