<svg xmlns="http://www.w3.org/2000/svg" viewBox="0 0 900 300" width="900" height="300">                                                             
    2   <defs>
    3     <style>
    4       .beacon  { animation: bp 2s ease-in-out infinite; }
    5       .beacon2 { animation: bp 2s ease-in-out infinite; animation-delay: 1s; }
    6       .beacon3 { animation: bp 2s ease-in-out infinite; animation-delay: .5s; }
    7       .cursor  { animation: cb .8s step-end infinite; animation-delay: 2.5s; opacity: 0; }
    8       @keyframes bp { 0%,100%{opacity:1} 50%{opacity:.06} }
    9       @keyframes cb { 0%,100%{opacity:1} 50%{opacity:0}   }
   10     </style>
   11
   12     <!-- Blade Runner sky: near-black top, warm amber at horizon -->
   13     <linearGradient id="sky" x1="0" y1="0" x2="0" y2="1" gradientUnits="objectBoundingBox">
   14       <stop offset="0%"   stop-color="#04020a"/>
   15       <stop offset="55%"  stop-color="#1a0e08"/>
   16       <stop offset="100%" stop-color="#4a1c00"/>
   17     </linearGradient>
   18
   19     <!-- Smog / warm ground haze -->
   20     <linearGradient id="smog" x1="0" y1="0" x2="0" y2="1" gradientUnits="objectBoundingBox">
   21       <stop offset="0%"   stop-color="#ff5500" stop-opacity="0"/>
   22       <stop offset="100%" stop-color="#ff6600" stop-opacity=".22"/>
   23     </linearGradient>
   24
   25     <!-- White text glow -->
   26     <filter id="neon" x="-30%" y="-80%" width="160%" height="260%">
   27       <feGaussianBlur in="SourceGraphic" stdDeviation="3" result="b1"/>
   28       <feGaussianBlur in="SourceGraphic" stdDeviation="7" result="b2"/>
   29       <feMerge>
   30         <feMergeNode in="b2"/>
   31         <feMergeNode in="b1"/>
   32         <feMergeNode in="SourceGraphic"/>
   33       </feMerge>
   34     </filter>
   35
   36     <!-- Small glow for signs and beacons -->
   37     <filter id="sg" x="-150%" y="-150%" width="400%" height="400%">
   38       <feGaussianBlur stdDeviation="2" result="b"/>
   39       <feMerge><feMergeNode in="b"/><feMergeNode in="SourceGraphic"/></feMerge>
   40     </filter>
   41
   42     <!-- Amber window pattern -->
   43     <pattern id="wA" x="2" y="2" width="14" height="12" patternUnits="userSpaceOnUse">
   44       <rect x="2" y="2" width="8" height="6" fill="#ffaa22"/>
   45     </pattern>
   46     <!-- Orange-red window pattern -->
   47     <pattern id="wR" x="2" y="2" width="14" height="12" patternUnits="userSpaceOnUse">
   48       <rect x="2" y="2" width="8" height="6" fill="#ff5511"/>
   49     </pattern>
   50     <!-- Rare cool-blue accent -->
   51     <pattern id="wB" x="2" y="2" width="14" height="12" patternUnits="userSpaceOnUse">
   52       <rect x="2" y="2" width="8" height="6" fill="#4499ff"/>
   53     </pattern>
   54
   55     <!-- Typewriter reveal clip -->
   56     <clipPath id="typer">
   57       <rect x="0" y="105" width="0" height="65">
   58         <animate attributeName="width" from="0" to="900" dur="2s" begin="0.8s" fill="freeze"/>
   59       </rect>
   60     </clipPath>
   61   </defs>
   62
   63   <!-- Sky -->
   64   <rect width="900" height="300" fill="url(#sky)"/>
   65
   66   <!-- Stars — few and dim, polluted sky -->
   67   <g fill="#fff" opacity=".35">
   68     <circle cx="35"  cy="12" r="0.8"/><circle cx="88"  cy="28" r="1.0"/>
   69     <circle cx="145" cy="8"  r="0.7"/><circle cx="220" cy="35" r="0.9"/>
   70     <circle cx="310" cy="18" r="0.8"/><circle cx="400" cy="42" r="0.7"/>
   71     <circle cx="480" cy="15" r="1.0"/><circle cx="565" cy="38" r="0.8"/>
   72     <circle cx="645" cy="10" r="0.9"/><circle cx="730" cy="30" r="0.7"/>
   73     <circle cx="810" cy="22" r="0.8"/><circle cx="870" cy="45" r="1.0"/>
   74   </g>
   75
   76   <!-- ░░ BACKGROUND LAYER — far silhouettes ░░ -->
   77   <g fill="#160b1a">
   78     <rect x="0"   y="192" width="62"  height="66"/>
   79     <rect x="65"  y="172" width="55"  height="86"/>
   80     <rect x="123" y="185" width="48"  height="73"/>
   81     <rect x="174" y="165" width="62"  height="93"/>
   82     <rect x="239" y="180" width="50"  height="78"/>
   83     <rect x="292" y="193" width="44"  height="65"/>
   84     <!-- Tyrell Corp pyramid — stepped trapezoid -->
   85     <polygon points="308,258 592,258 488,135 412,135"/>
   86     <rect x="428" y="124" width="44"  height="12"/>
   87     <rect x="436" y="113" width="28"  height="12"/>
   88     <rect x="444" y="105" width="12"  height="10"/>
   89     <rect x="592" y="193" width="44"  height="65"/>
   90     <rect x="639" y="180" width="50"  height="78"/>
   91     <rect x="692" y="165" width="62"  height="93"/>
   92     <rect x="757" y="185" width="48"  height="73"/>
   93     <rect x="808" y="172" width="55"  height="86"/>
   94     <rect x="866" y="192" width="34"  height="66"/>
   95   </g>
   96
   97   <!-- ░░ MIDGROUND LAYER ░░ -->
   98   <g fill="#080510">
   99     <rect x="0"   y="165" width="50"  height="93"/>
  100     <rect x="53"  y="142" width="68"  height="116"/>
  101     <rect x="124" y="155" width="55"  height="103"/>
  102     <rect x="182" y="122" width="70"  height="136"/>
  103     <rect x="255" y="166" width="48"  height="92"/>
  104     <rect x="306" y="202" width="40"  height="56"/>
  105     <!-- Center deliberately short to frame the text -->
  106     <rect x="554" y="202" width="40"  height="56"/>
  107     <rect x="597" y="166" width="48"  height="92"/>
  108     <rect x="648" y="122" width="70"  height="136"/>
  109     <rect x="721" y="155" width="55"  height="103"/>
  110     <rect x="779" y="142" width="68"  height="116"/>
  111     <rect x="850" y="165" width="50"  height="93"/>
  112   </g>
  113
  114   <!-- Midground windows -->
  115   <rect x="53"  y="142" width="68"  height="116" fill="url(#wA)" opacity=".58"/>
  116   <rect x="182" y="122" width="70"  height="136" fill="url(#wA)" opacity=".62"/>
  117   <rect x="124" y="155" width="55"  height="103" fill="url(#wR)" opacity=".42"/>
  118   <rect x="648" y="122" width="70"  height="136" fill="url(#wA)" opacity=".62"/>
  119   <rect x="721" y="155" width="55"  height="103" fill="url(#wR)" opacity=".42"/>
  120   <rect x="779" y="142" width="68"  height="116" fill="url(#wA)" opacity=".58"/>
  121   <rect x="255" y="166" width="48"  height="92"  fill="url(#wB)" opacity=".22"/>
  122   <rect x="597" y="166" width="48"  height="92"  fill="url(#wB)" opacity=".22"/>
  123
  124   <!-- Antennas and beacons -->
  125   <rect x="215" y="104" width="2"   height="20"  fill="#2a1010"/>
  126   <circle cx="216" cy="103" r="2.5" fill="#ff3300" filter="url(#sg)" class="beacon"/>
  127   <rect x="683" y="104" width="2"   height="20"  fill="#2a1010"/>
  128   <circle cx="684" cy="103" r="2.5" fill="#ff3300" filter="url(#sg)" class="beacon2"/>
  129   <rect x="87"  y="125" width="2"   height="18"  fill="#1a0e0e"/>
  130   <circle cx="88"  cy="124" r="2"   fill="#ff5500" filter="url(#sg)" class="beacon3"/>
  131   <rect x="813" y="125" width="2"   height="18"  fill="#1a0e0e"/>
  132   <circle cx="814" cy="124" r="2"   fill="#ff5500" filter="url(#sg)" class="beacon"/>
  133
  134   <!-- Neon signs on buildings -->
  135   <rect x="58"  y="183" width="32"  height="4"   fill="#ff4400" filter="url(#sg)" opacity=".9"/>
  136   <rect x="58"  y="190" width="22"  height="3"   fill="#ffbb00" filter="url(#sg)" opacity=".85"/>
  137   <rect x="812" y="183" width="32"  height="4"   fill="#ff4400" filter="url(#sg)" opacity=".9"/>
  138   <rect x="812" y="190" width="22"  height="3"   fill="#ffbb00" filter="url(#sg)" opacity=".85"/>
  139   <rect x="187" y="156" width="28"  height="3"   fill="#ff0055" filter="url(#sg)" opacity=".88"/>
  140   <rect x="685" y="156" width="28"  height="3"   fill="#ff0055" filter="url(#sg)" opacity=".88"/>
  141   <rect x="128" y="175" width="20"  height="3"   fill="#ff8800" filter="url(#sg)" opacity=".75"/>
  142   <rect x="752" y="175" width="20"  height="3"   fill="#ff8800" filter="url(#sg)" opacity=".75"/>
  143
  144   <!-- Smog layer -->
  145   <rect x="0" y="188" width="900" height="70" fill="url(#smog)"/>
  146
  147   <!-- Ground neon lines — amber/orange -->
  148   <line x1="0" y1="258" x2="900" y2="258" stroke="#ff8800" stroke-width="1.5" opacity=".5" filter="url(#sg)"/>
  149   <line x1="0" y1="261" x2="900" y2="261" stroke="#cc3300" stroke-width="0.5" opacity=".35"/>
  150
  151   <!-- Flying spinner vehicles -->
  152   <g>
  153     <circle r="1.5" fill="#ffcc44" filter="url(#sg)">
  154       <animate attributeName="cx" from="-10" to="910" dur="18s" repeatCount="indefinite"/>
  155       <animate attributeName="cy" values="72;68;76;72" dur="18s" repeatCount="indefinite"/>
  156     </circle>
  157     <circle r="1" fill="#ff4422" opacity=".8">
  158       <animate attributeName="cx" from="-16" to="904" dur="18s" repeatCount="indefinite"/>
  159       <animate attributeName="cy" values="72;68;76;72" dur="18s" repeatCount="indefinite"/>
  160     </circle>
  161   </g>
  162   <g>
  163     <circle r="1.5" fill="#aaccff" filter="url(#sg)">
  164       <animate attributeName="cx" from="910" to="-10" dur="14s" begin="9s" repeatCount="indefinite"/>
  165       <animate attributeName="cy" values="88;92;86;88" dur="14s" begin="9s" repeatCount="indefinite"/>
  166     </circle>
  167     <circle r="1" fill="#ff4422" opacity=".7">
  168       <animate attributeName="cx" from="916" to="-4" dur="14s" begin="9s" repeatCount="indefinite"/>
  169       <animate attributeName="cy" values="88;92;86;88" dur="14s" begin="9s" repeatCount="indefinite"/>
  170     </circle>
  171   </g>
  172
  173   <!-- ░░ TYPEWRITER TEXT ░░ -->
  174   <g clip-path="url(#typer)">
  175     <text x="450" y="152"
  176           text-anchor="middle"
  177           font-family="'Courier New', Courier, monospace"
  178           font-size="38"
  179           letter-spacing="5"
  180           fill="#ffffff"
  181           filter="url(#neon)">HELLO, WELCOME</text>
  182   </g>
  183
  184   <!-- Blinking cursor -->
  185   <rect x="643" y="122" width="3" height="33" fill="#ffffff" filter="url(#neon)" class="cursor"/>
  186 </svg>
